<svg t="1620569529430" class="icon" viewBox="0 0 1024 1024" version="1.1" xmlns="http://www.w3.org/2000/svg" p-id="15937" width="16" height="16"><path d="M106.9 937.1c-5.1 0-10.2-2-14.1-5.9-7.8-7.8-7.8-20.5 0-28.3l316.3-316.3c7.8-7.8 20.5-7.8 28.3 0s7.8 20.5 0 28.3L121 931.3c-3.9 3.9-9 5.8-14.1 5.8z" p-id="15938" fill="#cdcdcd"></path><path d="M438.4 920.7c-11 0-20-9-20-20V605.6H123.3c-11 0-20-9-20-20s9-20 20-20h315.1c11 0 20 9 20 20v315.1c0 11.1-9 20-20 20z" p-id="15939" fill="#cdcdcd"></path><path d="M600.8 443.2c-5.1 0-10.2-2-14.1-5.9-7.8-7.8-7.8-20.5 0-28.3L903 92.7c7.8-7.8 20.5-7.8 28.3 0s7.8 20.5 0 28.3L614.9 437.3c-3.9 3.9-9 5.9-14.1 5.9z" p-id="15940" fill="#cdcdcd"></path><path d="M900.7 458.4H585.6c-11 0-20-9-20-20V123.3c0-11 9-20 20-20s20 9 20 20v295.1h295.1c11 0 20 9 20 20s-8.9 20-20 20z" p-id="15941" fill="#cdcdcd"></path></svg>